<svg width="160" height="50" viewBox="0 0 160 50" fill="none" xmlns="http://www.w3.org/2000/svg">
<g id="image" clip-path="url(#clip0_1_1015)">
<path id="Vector" d="M154.075 49.3714H5.92592C2.66667 49.3714 0 46.5943 0 43.2V6.17143C0 2.77714 2.66667 0 5.92592 0H154.075C157.333 0 160 2.77714 160 6.17143V43.2C160 46.5943 157.333 49.3714 154.075 49.3714Z" fill="black"/>
<path id="Vector_2" d="M12.1033 10.1661C11.7671 10.5305 11.57 11.0947 11.57 11.8118V37.8141C11.57 38.5429 11.7671 39.1072 12.1033 39.4598L12.1845 39.5421L26.5498 24.9894V24.6367L12.1845 10.084L12.1033 10.1661Z" fill="url(#paint0_linear_1_1015)"/>
<path id="Vector_3" d="M31.3372 29.8456L26.5488 24.9907V24.6381L31.3372 19.7832L31.4415 19.842L37.1111 23.1098C38.7343 24.0386 38.7343 25.5667 37.1111 26.5071L31.4415 29.775L31.3372 29.8456Z" fill="url(#paint1_linear_1_1015)"/>
<path id="Vector_4" d="M31.4423 29.7731L26.5495 24.8125L12.1028 39.4594C12.6361 40.0354 13.5173 40.1059 14.5145 39.5299L31.4423 29.7731Z" fill="url(#paint2_linear_1_1015)"/>
<path id="Vector_5" d="M31.4423 19.8529L14.5033 10.0966C13.5062 9.52057 12.625 9.59115 12.0917 10.1672L26.5493 24.814L31.4423 19.8529Z" fill="url(#paint3_linear_1_1015)"/>
<path id="Vector_6" opacity="0.2" d="M31.3381 29.6676L14.5033 39.3655C13.5642 39.9062 12.7178 39.8709 12.1844 39.3772L12.1033 39.4594L12.1844 39.5417C12.7294 40.0354 13.5642 40.0707 14.5033 39.53L31.4423 29.7728L31.3381 29.6676Z" fill="black"/>
<path id="Vector_7" opacity="0.12" d="M9.54149 30.9801C9.27635 30.6928 9.12097 30.248 9.12097 29.6826V29.8217C9.12097 30.3962 9.27635 30.8411 9.54149 31.1191L9.6054 31.0542L9.54149 30.9801Z" fill="black"/>
<path id="Vector_8" opacity="0.12" d="M37.1127 26.3406L31.3271 29.6674L31.4315 29.7731L37.101 26.5052C37.9127 26.035 38.3184 25.4237 38.3184 24.8125C38.2605 25.365 37.8547 25.9174 37.1127 26.3406Z" fill="black"/>
<path id="Vector_9" opacity="0.25" d="M14.5033 10.2632L37.1118 23.2881C37.8422 23.7113 38.2596 24.252 38.3292 24.8162C38.3292 24.205 37.9234 23.5819 37.1118 23.1235L14.5033 10.0986C12.8802 9.16997 11.5584 9.94574 11.5584 11.8266V12.0029C11.5584 10.1103 12.8917 9.33454 14.5033 10.2632Z" fill="#F0EEEE"/>
<path id="Vector_10" d="M79.0025 27.0834C76.2779 27.0834 74.0519 29.1877 74.0519 32.0794C74.0519 34.9594 76.2779 37.0753 79.0025 37.0753C81.7272 37.0753 83.9533 34.9594 83.9533 32.0794C83.9533 29.1877 81.7272 27.0834 79.0025 27.0834ZM79.0025 35.1122C77.5068 35.1122 76.2199 33.8662 76.2199 32.0794C76.2199 30.2809 77.5068 29.0466 79.0025 29.0466C80.4982 29.0466 81.7852 30.2809 81.7852 32.0794C81.7852 33.8662 80.4866 35.1122 79.0025 35.1122ZM68.1966 27.0834C65.4719 27.0834 63.2458 29.1877 63.2458 32.0794C63.2458 34.9594 65.4719 37.0753 68.1966 37.0753C70.9212 37.0753 73.1473 34.9594 73.1473 32.0794C73.1473 29.1877 70.9212 27.0834 68.1966 27.0834ZM68.1966 35.1122C66.7009 35.1122 65.414 33.8662 65.414 32.0794C65.414 30.2809 66.7009 29.0466 68.1966 29.0466C69.6922 29.0466 70.9792 30.2809 70.9792 32.0794C70.9792 33.8662 69.6922 35.1122 68.1966 35.1122ZM55.35 28.6234V30.7393H60.3587C60.208 31.9266 59.8138 32.8082 59.2225 33.4077C58.492 34.1483 57.3558 34.9594 55.3616 34.9594C52.2775 34.9594 49.866 32.4438 49.866 29.3169C49.866 26.1901 52.2775 23.6745 55.3616 23.6745C57.0195 23.6745 58.237 24.3328 59.1297 25.1909L60.6022 23.698C59.35 22.4872 57.692 21.5586 55.35 21.5586C51.1297 21.5586 47.5819 25.0381 47.5819 29.3287C47.5819 33.6075 51.1297 37.0988 55.35 37.0988C57.634 37.0988 59.35 36.3465 60.695 34.9241C62.0746 33.5252 62.5036 31.5505 62.5036 29.9634C62.5036 29.4697 62.4689 29.0113 62.3877 28.6352H55.35V28.6234ZM107.884 30.2691C107.478 29.1524 106.225 27.0834 103.664 27.0834C101.125 27.0834 99.0144 29.1054 99.0144 32.0794C99.0144 34.8771 101.101 37.0753 103.907 37.0753C106.168 37.0753 107.478 35.6764 108.011 34.8654L106.33 33.7251C105.774 34.5597 105.008 35.1122 103.907 35.1122C102.805 35.1122 102.017 34.595 101.519 33.5958L108.115 30.8334L107.884 30.2691ZM101.159 31.9383C101.101 30.0105 102.631 29.0231 103.733 29.0231C104.591 29.0231 105.321 29.458 105.564 30.081L101.159 31.9383ZM95.8025 36.7815H97.9703V22.088H95.8025V36.7815ZM92.2542 28.2002H92.1737C91.6864 27.6124 90.759 27.0834 89.5763 27.0834C87.1068 27.0834 84.8459 29.2817 84.8459 32.1029C84.8459 34.9006 87.1068 37.0871 89.5763 37.0871C90.7473 37.0871 91.6864 36.5581 92.1737 35.9468H92.2432V36.6639C92.2432 38.5799 91.2343 39.6027 89.6112 39.6027C88.2894 39.6027 87.4663 38.6387 87.13 37.8277L85.2401 38.6269C85.7851 39.9553 87.2228 41.5775 89.6112 41.5775C92.15 41.5775 94.2949 40.0611 94.2949 36.37V27.3891H92.2432V28.2002H92.2542ZM89.7618 35.1122C88.2663 35.1122 87.014 33.8427 87.014 32.1029C87.014 30.3397 88.2663 29.0583 89.7618 29.0583C91.2343 29.0583 92.3941 30.3514 92.3941 32.1029C92.405 33.8427 91.2459 35.1122 89.7618 35.1122ZM118.04 22.0873H112.858V36.7808H115.025V31.2089H118.052C120.452 31.2089 122.805 29.4456 122.805 26.6479C122.805 23.8502 120.429 22.0873 118.04 22.0873ZM118.086 29.1639H115.014V24.1209H118.086C119.709 24.1209 120.625 25.4845 120.625 26.6365C120.625 27.7885 119.709 29.1639 118.086 29.1639ZM131.466 27.0597C129.901 27.0597 128.278 27.7649 127.605 29.3049L129.53 30.116C129.936 29.3049 130.701 29.0345 131.501 29.0345C132.614 29.0345 133.762 29.7163 133.774 30.9271V31.08C133.38 30.8566 132.545 30.5157 131.513 30.5157C129.437 30.5157 127.339 31.6677 127.339 33.8189C127.339 35.782 129.031 37.0515 130.933 37.0515C132.382 37.0515 133.194 36.3932 133.692 35.6174H133.762V36.7577H135.849V31.127C135.86 28.5173 133.936 27.0597 131.466 27.0597ZM131.199 35.112C130.492 35.112 129.507 34.7475 129.507 33.8659C129.507 32.7374 130.736 32.3025 131.803 32.3025C132.753 32.3025 133.205 32.514 133.774 32.7962C133.611 34.148 132.452 35.112 131.199 35.112ZM143.466 27.3771L140.985 33.7483H140.915L138.341 27.3771H136.011L139.872 36.2875L137.67 41.2363H139.93L145.878 27.3776L143.466 27.3771ZM123.988 36.7815H126.156V22.088H123.988V36.7815Z" fill="#F0EEEE"/>
<path id="Vector_11" d="M47.9305 16.7972V9.74414H50.0639C51.1305 9.74414 51.9885 10.0733 52.6262 10.7198C53.2639 11.3781 53.5885 12.2245 53.5885 13.2706C53.5885 14.3168 53.2639 15.1632 52.6262 15.8215C51.977 16.4681 51.1189 16.7972 50.0523 16.7972H47.9305ZM48.8233 15.9274H50.0523C50.8523 15.9274 51.4899 15.6922 51.9654 15.222C52.4407 14.7518 52.6726 14.1053 52.6726 13.2589C52.6726 12.4243 52.4407 11.7778 51.9654 11.3076C51.4899 10.8374 50.8639 10.6023 50.0523 10.6023H48.8233V15.9274Z" fill="#F0EEEE" stroke="#F0EEEE" stroke-width="0.173913" stroke-miterlimit="10"/>
<path id="Vector_12" d="M54.8407 16.7972V9.74414H55.7335V16.7972H54.8407Z" fill="#F0EEEE" stroke="#F0EEEE" stroke-width="0.173913" stroke-miterlimit="10"/>
<path id="Vector_13" d="M59.2814 16.9485C58.7713 16.9485 58.2842 16.784 57.7973 16.443C57.3103 16.1022 56.9973 15.6437 56.8466 15.0325L57.6582 14.7033C57.7509 15.0913 57.9481 15.4204 58.2495 15.679C58.5509 15.9493 58.8872 16.0787 59.2698 16.0787C59.6524 16.0787 59.9887 15.9728 60.2669 15.7731C60.5452 15.5614 60.6842 15.291 60.6842 14.9267C60.6842 14.5388 60.5452 14.2331 60.2669 14.0216C59.9887 13.8099 59.5597 13.6101 58.9568 13.422C58.3423 13.2222 57.8785 12.9753 57.5538 12.6579C57.2408 12.3405 57.0785 11.9526 57.0785 11.4589C57.0785 10.9534 57.2756 10.5185 57.6698 10.1423C58.064 9.76619 58.5858 9.57812 59.2118 9.57812C59.8031 9.57812 60.2785 9.7309 60.6495 10.0248C61.0205 10.3187 61.264 10.6478 61.3683 11.0005L60.5568 11.3413C60.4987 11.118 60.3597 10.9064 60.1278 10.7183C59.8959 10.5303 59.606 10.4362 59.235 10.4362C58.8872 10.4362 58.5973 10.5303 58.3538 10.7301C58.1103 10.9299 57.9944 11.1651 57.9944 11.4589C57.9944 11.7176 58.1103 11.9408 58.3307 12.129C58.5509 12.3053 58.8872 12.4698 59.3162 12.6109C59.664 12.7285 59.9423 12.8343 60.1742 12.94C60.406 13.0458 60.6379 13.1869 60.8698 13.3633C61.1017 13.5395 61.2872 13.7511 61.4031 14.0098C61.5191 14.2684 61.5887 14.574 61.5887 14.9149C61.5887 15.2558 61.5191 15.5614 61.3799 15.8318C61.2408 16.1022 61.0553 16.3138 60.8234 16.4665C60.5915 16.6194 60.3481 16.7487 60.0814 16.831C59.8379 16.9133 59.5597 16.9485 59.2814 16.9485Z" fill="#F0EEEE" stroke="#F0EEEE" stroke-width="0.173913" stroke-miterlimit="10"/>
<path id="Vector_14" d="M63.7806 16.7972H62.8878V9.74414H65.253C65.8443 9.74414 66.3545 9.944 66.7834 10.3436C67.2124 10.7434 67.4327 11.2371 67.4327 11.8483C67.4327 12.4478 67.2124 12.9533 66.7834 13.3529C66.3545 13.7526 65.8443 13.9525 65.253 13.9525H63.7806V16.7972ZM63.7806 13.0709H65.2761C65.6472 13.0709 65.9486 12.9415 66.1806 12.6829C66.4124 12.4243 66.5167 12.1422 66.5167 11.8366C66.5167 11.5309 66.4008 11.2488 66.1806 10.9902C65.9486 10.7316 65.6472 10.6023 65.2761 10.6023H63.7806V13.0709Z" fill="#F0EEEE" stroke="#F0EEEE" stroke-width="0.173913" stroke-miterlimit="10"/>
<path id="Vector_15" d="M74.2482 15.8798C73.5642 16.5969 72.7178 16.9495 71.6975 16.9495C70.6772 16.9495 69.8309 16.5969 69.1468 15.8798C68.4627 15.1628 68.1265 14.2929 68.1265 13.2702C68.1265 12.2475 68.4627 11.3659 69.1468 10.6605C69.8309 9.94346 70.6772 9.59082 71.6975 9.59082C72.7062 9.59082 73.5526 9.94346 74.2482 10.6605C74.9323 11.3776 75.2801 12.2475 75.2801 13.2702C75.2801 14.3046 74.9323 15.1745 74.2482 15.8798ZM69.8076 15.292C70.3178 15.821 70.9555 16.0797 71.6975 16.0797C72.4396 16.0797 73.0772 15.821 73.5874 15.292C74.0975 14.7631 74.3642 14.093 74.3642 13.2702C74.3642 12.4473 74.1091 11.7773 73.5874 11.2483C73.0772 10.7193 72.4396 10.4608 71.6975 10.4608C70.9555 10.4608 70.3178 10.7193 69.8076 11.2483C69.2975 11.7773 69.0309 12.4473 69.0309 13.2702C69.0309 14.093 69.2975 14.7631 69.8076 15.292Z" fill="#F0EEEE" stroke="#F0EEEE" stroke-width="0.173913" stroke-miterlimit="10"/>
<path id="Vector_16" d="M76.533 16.7972V9.74414H77.6228L81.0084 15.2338H81.0432L81.0084 13.8702V9.74414H81.9012V16.7972H80.9736L77.4373 11.0489H77.4026L77.4373 12.4126V16.7972H76.533Z" fill="#F0EEEE" stroke="#F0EEEE" stroke-width="0.173913" stroke-miterlimit="10"/>
<path id="Vector_17" d="M83.4889 16.797V9.74388H84.3817V16.797H83.4889ZM84.3237 9.19138H83.5469L84.057 7.93359H85.0309L84.3237 9.19138Z" fill="#F0EEEE" stroke="#F0EEEE" stroke-width="0.173913" stroke-miterlimit="10"/>
<path id="Vector_18" d="M87.6992 16.7972L85.2529 9.74414H86.2384L88.1398 15.4688H88.1747L90.1688 9.74414H91.1543L88.6268 16.7972H87.6992Z" fill="#F0EEEE" stroke="#F0EEEE" stroke-width="0.173913" stroke-miterlimit="10"/>
<path id="Vector_19" d="M96.2286 10.615H93.0633V12.8485H95.915V13.6948H93.0633V15.9283H96.2286V16.7982H92.17V9.74512H96.2286V10.615Z" fill="#F0EEEE" stroke="#F0EEEE" stroke-width="0.173913" stroke-miterlimit="10"/>
<path id="Vector_20" d="M97.6274 16.7972V9.74414H98.5207V15.9274H101.535V16.7972H97.6274Z" fill="#F0EEEE" stroke="#F0EEEE" stroke-width="0.173913" stroke-miterlimit="10"/>
<path id="Vector_21" d="M104.987 16.7972V9.74414H106.077L109.463 15.2338H109.498L109.463 13.8702V9.74414H110.355V16.7972H109.428L105.892 11.0489H105.857L105.892 12.4126V16.7972H104.987Z" fill="#F0EEEE" stroke="#F0EEEE" stroke-width="0.173913" stroke-miterlimit="10"/>
<path id="Vector_22" d="M117.632 15.8798C116.948 16.5969 116.102 16.9495 115.082 16.9495C114.062 16.9495 113.215 16.5969 112.531 15.8798C111.847 15.1628 111.511 14.2929 111.511 13.2702C111.511 12.2475 111.847 11.3659 112.531 10.6605C113.215 9.94346 114.062 9.59082 115.082 9.59082C116.091 9.59082 116.937 9.94346 117.632 10.6605C118.317 11.3776 118.664 12.2475 118.664 13.2702C118.652 14.3046 118.317 15.1745 117.632 15.8798ZM113.192 15.292C113.702 15.821 114.34 16.0797 115.082 16.0797C115.824 16.0797 116.462 15.821 116.972 15.292C117.482 14.7631 117.748 14.093 117.748 13.2702C117.748 12.4473 117.493 11.7773 116.972 11.2483C116.462 10.7193 115.824 10.4608 115.082 10.4608C114.34 10.4608 113.702 10.7193 113.192 11.2483C112.682 11.7773 112.415 12.4473 112.415 13.2702C112.415 14.093 112.682 14.7631 113.192 15.292Z" fill="#F0EEEE" stroke="#F0EEEE" stroke-width="0.173913" stroke-miterlimit="10"/>
</g>
<defs>
<linearGradient id="paint0_linear_1_1015" x1="25.2736" y1="11.5412" x2="5.5476" y2="30.9972" gradientUnits="userSpaceOnUse">
<stop stop-color="#00A0FF"/>
<stop offset="0.0065744" stop-color="#00A1FF"/>
<stop offset="0.2601" stop-color="#00BEFF"/>
<stop offset="0.5122" stop-color="#00D2FF"/>
<stop offset="0.7604" stop-color="#00DFFF"/>
<stop offset="1" stop-color="#00E3FF"/>
</linearGradient>
<linearGradient id="paint1_linear_1_1015" x1="39.2265" y1="24.8161" x2="11.1726" y2="24.8161" gradientUnits="userSpaceOnUse">
<stop stop-color="#FFE000"/>
<stop offset="0.4087" stop-color="#FFBD00"/>
<stop offset="0.7754" stop-color="#FFA500"/>
<stop offset="1" stop-color="#FF9C00"/>
</linearGradient>
<linearGradient id="paint2_linear_1_1015" x1="28.7844" y1="27.5121" x2="2.03409" y2="53.8957" gradientUnits="userSpaceOnUse">
<stop stop-color="#FF3A44"/>
<stop offset="1" stop-color="#C31162"/>
</linearGradient>
<linearGradient id="paint3_linear_1_1015" x1="8.45894" y1="1.51097" x2="20.4041" y2="13.292" gradientUnits="userSpaceOnUse">
<stop stop-color="#32A071"/>
<stop offset="0.0685" stop-color="#2DA771"/>
<stop offset="0.4762" stop-color="#15CF74"/>
<stop offset="0.8009" stop-color="#06E775"/>
<stop offset="1" stop-color="#00F076"/>
</linearGradient>
<clipPath id="clip0_1_1015">
<rect width="160" height="49.3714" fill="white"/>
</clipPath>
</defs>
</svg>
