<svg width="30" height="30" viewBox="0 0 30 30" fill="none" xmlns="http://www.w3.org/2000/svg">
<g id="SVG">
<path id="Vector" d="M16.875 0.837402C16.875 0.837402 17.8 4.1499 17.8 6.8374C17.8 9.4124 16.1125 11.4999 13.5375 11.4999C10.95 11.4999 9 9.4124 9 6.8374L9.0375 6.3874C6.5125 9.3874 5 13.2749 5 17.4999C5 23.0249 9.475 27.4999 15 27.4999C20.525 27.4999 25 23.0249 25 17.4999C25 10.7624 21.7625 4.7499 16.875 0.837402ZM14.6375 23.7499C12.4125 23.7499 10.6125 21.9999 10.6125 19.8249C10.6125 17.7999 11.925 16.3749 14.125 15.9249C16.3375 15.4749 18.625 14.4124 19.9 12.6999C20.3875 14.3124 20.6375 16.0124 20.6375 17.7499C20.6375 21.0624 17.95 23.7499 14.6375 23.7499Z" fill="#E90313"/>
</g>
</svg>
