<svg width="30" height="30" viewBox="0 0 30 30" fill="none" xmlns="http://www.w3.org/2000/svg">
<g id="SVG">
<path id="Vector" d="M25 10.8625V5H19.1375L15 0.862503L10.8625 5H4.99999V10.8625L0.862488 15L4.99999 19.1375V25H10.8625L15 29.1375L19.1375 25H25V19.1375L29.1375 15L25 10.8625ZM15 22.5C10.8625 22.5 7.49999 19.1375 7.49999 15C7.49999 10.8625 10.8625 7.5 15 7.5C19.1375 7.5 22.5 10.8625 22.5 15C22.5 19.1375 19.1375 22.5 15 22.5ZM15 10C12.2375 10 9.99999 12.2375 9.99999 15C9.99999 17.7625 12.2375 20 15 20C17.7625 20 20 17.7625 20 15C20 12.2375 17.7625 10 15 10Z" fill="#E90313"/>
</g>
</svg>
