<svg width="32" height="32" viewBox="0 0 32 32" fill="none" xmlns="http://www.w3.org/2000/svg">
<g id="SVG">
<path id="Vector" d="M15.9867 2.66699C8.62666 2.66699 2.66666 8.64033 2.66666 16.0003C2.66666 23.3603 8.62666 29.3337 15.9867 29.3337C23.36 29.3337 29.3333 23.3603 29.3333 16.0003C29.3333 8.64033 23.36 2.66699 15.9867 2.66699ZM16 26.667C10.1067 26.667 5.33332 21.8937 5.33332 16.0003C5.33332 10.107 10.1067 5.33366 16 5.33366C21.8933 5.33366 26.6667 10.107 26.6667 16.0003C26.6667 21.8937 21.8933 26.667 16 26.667ZM15.7067 9.33366H15.6267C15.0933 9.33366 14.6667 9.76033 14.6667 10.2937V16.587C14.6667 17.0537 14.9067 17.4937 15.32 17.7337L20.8533 21.0537C21.3067 21.3203 21.8933 21.187 22.16 20.7337C22.44 20.2803 22.2933 19.6803 21.8267 19.4137L16.6667 16.347V10.2937C16.6667 9.76033 16.24 9.33366 15.7067 9.33366Z" fill="#E90313"/>
</g>
</svg>
