<svg width="32" height="32" viewBox="0 0 32 32" fill="none" xmlns="http://www.w3.org/2000/svg">
<g id="SVG">
<path id="Vector" d="M17.1733 6.73367C21.4133 7.26701 24.7333 10.587 25.2667 14.827C25.3467 15.507 25.92 16.0003 26.5867 16.0003C26.64 16.0003 26.6933 16.0003 26.7467 15.987C27.48 15.8937 28 15.227 27.9067 14.4937C27.2267 9.04034 22.9467 4.76034 17.4933 4.08034C16.76 4.00034 16.0933 4.52034 16.0133 5.25367C15.92 5.98701 16.44 6.65367 17.1733 6.73367ZM17.68 9.547C16.9733 9.36034 16.24 9.78701 16.0533 10.507C15.8667 11.227 16.2933 11.947 17.0133 12.1337C18.4133 12.4937 19.5067 13.587 19.88 15.0003C20.04 15.6003 20.5733 16.0003 21.1733 16.0003C21.28 16.0003 21.4 15.987 21.5067 15.9603C22.2133 15.7737 22.64 15.0403 22.4667 14.3337C21.84 11.9737 20.0133 10.147 17.68 9.547ZM25.64 20.347L22.2533 19.9603C21.44 19.867 20.64 20.147 20.0667 20.7203L17.6133 23.1737C13.84 21.2537 10.7467 18.1737 8.82667 14.387L11.2933 11.9203C11.8667 11.347 12.1467 10.547 12.0533 9.73367L11.6667 6.37367C11.5067 5.02701 10.3733 4.01367 9.01333 4.01367H6.70667C5.2 4.01367 3.94667 5.26701 4.04 6.77367C4.74667 18.1603 13.8533 27.2537 25.2267 27.9603C26.7333 28.0537 27.9867 26.8003 27.9867 25.2937V22.987C28 21.6403 26.9867 20.507 25.64 20.347Z" fill="#E90313"/>
</g>
</svg>
