<svg width="32" height="32" viewBox="0 0 32 32" fill="none" xmlns="http://www.w3.org/2000/svg">
<g id="SVG">
<path id="Vector" d="M26.6667 5.33301H5.33333C3.86666 5.33301 2.68 6.53301 2.68 7.99967L2.66666 23.9997C2.66666 25.4663 3.86666 26.6663 5.33333 26.6663H26.6667C28.1333 26.6663 29.3333 25.4663 29.3333 23.9997V7.99967C29.3333 6.53301 28.1333 5.33301 26.6667 5.33301ZM25.3333 23.9997H6.66666C5.93333 23.9997 5.33333 23.3997 5.33333 22.6663V10.6663L14.5867 16.453C15.4533 16.9997 16.5467 16.9997 17.4133 16.453L26.6667 10.6663V22.6663C26.6667 23.3997 26.0667 23.9997 25.3333 23.9997ZM16 14.6663L5.33333 7.99967H26.6667L16 14.6663Z" fill="#E90313"/>
</g>
</svg>
