<svg width="54" height="17" viewBox="0 0 54 17" fill="none" xmlns="http://www.w3.org/2000/svg">
<g id="image" clip-path="url(#clip0_1_957)">
<path id="Vector" d="M7.44703 0C6.23698 0 5.20777 0.476582 4.43121 1.29286C4.37628 1.29117 4.32136 1.28948 4.26643 1.28948C2.68712 1.28948 1.20667 2.20124 0.484192 3.61746C0.168161 4.23601 0.050705 4.90187 0.0143698 5.57872C-0.0185853 6.18628 0.0143698 6.80397 0.0143698 7.40562V13.2378H3.25581C3.25581 13.2378 3.25834 10.3648 3.25581 7.89488C3.25412 6.23191 3.24398 4.75061 3.25581 4.44641C3.31327 3.00737 3.70366 2.06688 4.43121 1.29708C6.84369 1.29962 8.40526 2.95752 8.4923 5.59815C8.51258 6.20402 8.51849 9.44799 8.51849 9.44799V13.2378H11.7591V8.11458C11.7591 6.56568 11.7709 5.22466 11.6644 4.30192C11.367 1.72127 9.80374 0 7.44703 0Z" fill="#4C0A77"/>
<path id="Vector_2" d="M24.5355 6.14673V0.313664H21.2941C21.2941 0.313664 21.2916 3.18668 21.2941 5.65663C21.2958 7.31959 21.3059 8.80089 21.2941 9.10509C21.2366 10.5441 20.8463 11.4846 20.1187 12.2544C17.7062 12.2519 16.1446 10.594 16.0576 7.95335C16.0373 7.34748 16.0289 5.84253 16.0289 4.10013V0.311129L12.79 0.314509V5.43777C12.79 6.98666 12.7782 8.32769 12.8846 9.25043C13.1838 11.8302 14.7462 13.5515 17.1029 13.5515C18.3129 13.5515 19.3421 13.0749 20.1187 12.2586C20.1736 12.2612 20.2286 12.262 20.2835 12.262C21.8628 12.262 23.3432 11.3494 24.0657 9.93404C24.3818 9.3155 24.4984 8.64963 24.5355 7.97278C24.5685 7.36522 24.5355 6.74753 24.5355 6.14588" fill="#4C0A77"/>
<path id="Vector_3" d="M32.1795 6.10563H29.3909V2.26846H32.1795C33.3059 2.26846 34.1365 3.08812 34.1365 4.16888C34.1365 5.24964 33.3059 6.10647 32.1795 6.10647M32.1795 0.182993H27.2303V13.2223H29.3909V8.19279H32.1795C34.5615 8.19279 36.3158 6.49771 36.3158 4.16888C36.3158 1.84005 34.5615 0.182148 32.1795 0.182148" fill="#4C0A77"/>
<path id="Vector_4" d="M42.3913 9.55256C42.3913 10.6891 41.4128 11.769 39.9907 11.769C39.0857 11.769 38.495 11.2662 38.495 10.5581C38.495 9.60833 39.4 9.16133 41.0064 9.16133H42.3913V9.55256ZM40.4706 3.92653C38.5314 3.92653 36.9064 5.3605 36.7585 7.18655H38.6049C38.6606 6.25536 39.4727 5.6216 40.4698 5.6216C41.6334 5.6216 42.3905 6.34831 42.3905 7.44681V7.61412H41.0613C38.3649 7.61412 36.685 8.80643 36.685 10.7246C36.685 12.2524 37.8849 13.4066 39.6392 13.4066C40.8399 13.4066 41.7627 12.941 42.3905 12.0842V13.2207H44.3298V7.57779C44.3298 5.39852 42.982 3.92653 40.4706 3.92653Z" fill="#4C0A77"/>
<path id="Vector_5" d="M51.7844 4.14412L49.3652 10.3473L46.9459 4.14412H44.7303L48.3123 12.7691L46.6873 16.4567H48.9038L54 4.14412H51.7844Z" fill="#4C0A77"/>
</g>
<defs>
<clipPath id="clip0_1_957">
<rect width="53.56" height="16.3224" fill="white" transform="scale(1.00822)"/>
</clipPath>
</defs>
</svg>
