<svg width="160" height="50" viewBox="0 0 160 50" fill="none" xmlns="http://www.w3.org/2000/svg">
<g id="image" clip-path="url(#clip0_1_993)">
<path id="Vector" d="M147.255 0.000350009H12.7451C12.2548 0.000350009 11.7704 0.00035001 11.2814 0.00281858C10.8721 0.00528715 10.4659 0.0124579 10.0527 0.018494C9.15484 0.0282476 8.25912 0.101162 7.37336 0.236606C6.48878 0.374992 5.63192 0.635902 4.83173 1.0105C4.03254 1.38827 3.30232 1.87914 2.66744 2.46531C2.02929 3.04983 1.49733 3.72547 1.09203 4.46623C0.68563 5.2055 0.403829 5.99766 0.256354 6.81549C0.107481 7.63222 0.0273805 8.45837 0.0167474 9.28653C0.00433962 9.66495 0.00302854 10.0447 -0.00350952 10.4232V38.9525C0.00302881 39.3358 0.00433907 39.7071 0.0167474 40.0905C0.0273787 40.9185 0.107486 41.7447 0.256354 42.5613C0.403417 43.3796 0.685227 44.1723 1.09203 44.9118C1.49713 45.6501 2.02917 46.3231 2.66744 46.9044C3.29984 47.4931 4.03054 47.9843 4.83173 48.3592C5.63191 48.7348 6.48869 48.9972 7.37336 49.1378C8.25933 49.2721 9.15493 49.345 10.0527 49.356C10.4659 49.3643 10.8721 49.3692 11.2814 49.3692C11.7704 49.3716 12.2548 49.3716 12.7451 49.3716H147.255C147.736 49.3716 148.224 49.3716 148.704 49.3692C149.112 49.3692 149.53 49.3643 149.937 49.356C150.833 49.3456 151.727 49.2727 152.611 49.1378C153.499 48.9962 154.359 48.7338 155.163 48.3592C155.963 47.984 156.693 47.4929 157.325 46.9044C157.961 46.3208 158.494 45.6484 158.905 44.9118C159.309 44.1717 159.588 43.3791 159.732 42.5613C159.882 41.7446 159.964 40.9186 159.981 40.0905C159.986 39.7071 159.986 39.3358 159.986 38.9525C159.996 38.5042 159.996 38.0582 159.996 37.6025V11.7703C159.996 11.3183 159.996 10.8699 159.986 10.4227C159.986 10.0442 159.986 9.66449 159.981 9.28598C159.964 8.45779 159.882 7.63185 159.732 6.81503C159.588 5.99773 159.308 5.20561 158.905 4.46577C158.079 2.98106 156.771 1.77247 155.163 1.01005C154.359 0.636368 153.499 0.375532 152.611 0.236149C151.728 0.100112 150.833 0.0271706 149.937 0.0179729C149.53 0.0119496 149.112 0.00471664 148.704 0.00231024C148.224 -0.000158334 147.736 0.000350009 147.255 0.000350009Z" fill="#010101"/>
<path id="Vector_2" d="M34.1321 23.8591C34.1448 22.878 34.4076 21.916 34.8959 21.0626C35.3842 20.2092 36.0823 19.4922 36.9251 18.9784C36.3897 18.22 35.6834 17.5958 34.8623 17.1556C34.0411 16.7153 33.1278 16.471 32.1948 16.442C30.2046 16.2348 28.2752 17.6231 27.261 17.6231C26.2272 17.6231 24.6657 16.4625 22.9842 16.4968C21.8967 16.5317 20.8367 16.8454 19.9077 17.4074C18.9786 17.9693 18.2122 18.7604 17.683 19.7035C15.3909 23.6396 17.1006 29.4242 19.2963 32.6059C20.3949 34.1639 21.6787 35.9041 23.3586 35.8424C25.0026 35.7748 25.6166 34.8028 27.6009 34.8028C29.5668 34.8028 30.1429 35.8424 31.8569 35.8032C33.6209 35.7748 34.7323 34.2383 35.7924 32.6656C36.5817 31.5555 37.189 30.3286 37.592 29.0303C36.5671 28.6004 35.6925 27.8808 35.0773 26.9612C34.462 26.0416 34.1333 24.9628 34.1321 23.8591Z" fill="#F0EEEE"/>
<path id="Vector_3" d="M30.8937 14.3494C31.8555 13.2042 32.3294 11.7323 32.2147 10.2461C30.7452 10.3992 29.3879 11.0957 28.4131 12.197C27.9365 12.735 27.5715 13.3609 27.3389 14.0389C27.1063 14.7169 27.0107 15.4337 27.0576 16.1484C27.7926 16.1559 28.5197 15.9979 29.1842 15.6863C29.8487 15.3746 30.4332 14.9175 30.8937 14.3494Z" fill="#F0EEEE"/>
<path id="Vector_4" d="M57.93 31.8971H52.3201L50.9729 35.8426H48.5966L53.9104 21.2451H56.3791L61.6928 35.8426H59.2761L57.93 31.8971ZM52.9011 30.0764H57.3479L55.1557 23.6731H55.0944L52.9011 30.0764Z" fill="#F0EEEE"/>
<path id="Vector_5" d="M73.1694 30.5209C73.1694 33.8282 71.3847 35.953 68.6914 35.953C68.0092 35.9884 67.3306 35.8325 66.7335 35.5033C66.1364 35.1739 65.6449 34.6845 65.3152 34.091H65.2643V39.3625H63.0617V25.1993H65.1937V26.9694H65.2342C65.5791 26.3788 66.0788 25.8919 66.6805 25.5606C67.2821 25.2292 67.9631 25.0659 68.6509 25.0879C71.3742 25.088 73.1694 27.2227 73.1694 30.5209ZM70.9055 30.5209C70.9055 28.3662 69.7828 26.9496 68.0699 26.9496C66.3869 26.9496 65.255 28.396 65.255 30.5209C65.255 32.6652 66.3869 34.1014 68.0699 34.1014C69.7828 34.1014 70.9055 32.6951 70.9055 30.5209Z" fill="#F0EEEE"/>
<path id="Vector_6" d="M84.9792 30.5209C84.9792 33.8281 83.1945 35.953 80.5012 35.953C79.819 35.9884 79.1404 35.8325 78.5434 35.5033C77.9462 35.1739 77.4547 34.6845 77.125 34.091H77.0741V39.3625H74.8715V25.1993H77.0034V26.9694H77.0439C77.3888 26.3788 77.8886 25.8919 78.4902 25.5606C79.0919 25.2292 79.7729 25.0659 80.4606 25.0879C83.1841 25.0879 84.9792 27.2227 84.9792 30.5209ZM82.7153 30.5209C82.7153 28.3662 81.5926 26.9496 79.8797 26.9496C78.1967 26.9496 77.0649 28.396 77.0649 30.5209C77.0649 32.6652 78.1967 34.1014 79.8797 34.1014C81.5926 34.1014 82.7153 32.6951 82.7153 30.5209Z" fill="#F0EEEE"/>
<path id="Vector_7" d="M92.7817 31.7746C92.9445 33.2222 94.3625 34.1726 96.2999 34.1726C98.1568 34.1726 99.4917 33.2221 99.4917 31.9169C99.4917 30.7839 98.6862 30.1054 96.779 29.6405L94.8718 29.1847C92.1692 28.5373 90.9145 27.2838 90.9145 25.2496C90.9145 22.731 93.1273 21.001 96.2697 21.001C99.3801 21.001 101.511 22.731 101.584 25.2496H99.36C99.2265 23.7928 98.0133 22.9135 96.2386 22.9135C94.464 22.9135 93.2498 23.8032 93.2498 25.0981C93.2498 26.13 94.0252 26.7373 95.9223 27.2022L97.5442 27.5971C100.564 28.3054 101.819 29.5085 101.819 31.6437C101.819 34.3747 99.6252 36.0851 96.1362 36.0851C92.8732 36.0851 90.6691 34.4148 90.5267 31.7746L92.7817 31.7746Z" fill="#F0EEEE"/>
<path id="Vector_8" d="M106.569 22.6826V25.2012H108.61V26.9312H106.569V32.7985C106.569 33.7099 106.978 34.1347 107.875 34.1347C108.117 34.1305 108.359 34.1136 108.6 34.0841V35.8037C108.197 35.8785 107.786 35.9123 107.376 35.9047C105.204 35.9047 104.357 35.0954 104.357 33.0314V26.9312H102.796V25.2012H104.357V22.6826H106.569Z" fill="#F0EEEE"/>
<path id="Vector_9" d="M109.797 30.5221C109.797 27.1736 111.785 25.0693 114.885 25.0693C117.997 25.0693 119.976 27.1736 119.976 30.5221C119.976 33.8799 118.007 35.9749 114.885 35.9749C111.765 35.9749 109.797 33.8799 109.797 30.5221ZM117.732 30.5221C117.732 28.2251 116.67 26.8694 114.885 26.8694C113.101 26.8694 112.04 28.2354 112.04 30.5221C112.04 32.8284 113.101 34.1738 114.885 34.1738C116.67 34.1738 117.732 32.8284 117.732 30.5221Z" fill="#F0EEEE"/>
<path id="Vector_10" d="M121.792 25.1982H123.893V27.0096H123.943C124.086 26.4439 124.42 25.9439 124.89 25.5938C125.36 25.2436 125.937 25.0646 126.524 25.0868C126.779 25.086 127.032 25.1133 127.28 25.1684V27.2117C126.959 27.1146 126.625 27.07 126.289 27.0797C125.969 27.0668 125.65 27.1227 125.355 27.2437C125.059 27.3647 124.793 27.5477 124.574 27.7804C124.357 28.013 124.191 28.2896 124.091 28.5914C123.992 28.8931 123.958 29.2127 123.995 29.5283V35.8409H121.792V25.1982Z" fill="#F0EEEE"/>
<path id="Vector_11" d="M137.435 32.718C137.139 34.65 135.242 35.9759 132.816 35.9759C129.694 35.9759 127.756 33.9016 127.756 30.5737C127.756 27.2353 129.704 25.0703 132.722 25.0703C135.692 25.0703 137.558 27.093 137.558 30.32V31.0684H129.979V31.2004C129.945 31.5921 129.994 31.9867 130.125 32.358C130.256 32.7292 130.464 33.0687 130.737 33.3538C131.01 33.6389 131.341 33.8632 131.708 34.0117C132.075 34.1601 132.47 34.2294 132.866 34.215C133.387 34.2634 133.909 34.1438 134.355 33.8741C134.802 33.6043 135.149 33.199 135.344 32.718H137.435ZM129.99 29.5416H135.355C135.375 29.1894 135.321 28.837 135.196 28.5065C135.072 28.1759 134.881 27.8743 134.634 27.6207C134.386 27.3671 134.089 27.1669 133.76 27.0326C133.432 26.8983 133.078 26.8329 132.722 26.8405C132.364 26.8384 132.008 26.9067 131.676 27.0416C131.344 27.1765 131.043 27.3752 130.789 27.6264C130.535 27.8774 130.333 28.1761 130.196 28.5047C130.059 28.8335 129.989 29.1859 129.99 29.5416Z" fill="#F0EEEE"/>
<path id="Vector_12" d="M50.0745 17.2727V10.2588H52.917C54.2458 10.2588 55.0444 10.9292 55.0444 12.0083C55.0447 12.3627 54.9214 12.7064 54.6956 12.9812C54.4697 13.2558 54.155 13.4446 53.8048 13.5156V13.5982C54.2393 13.6186 54.6486 13.8061 54.946 14.121C55.2433 14.4358 55.4053 14.8533 55.3974 15.2845C55.3974 16.5192 54.4912 17.2728 52.9808 17.2728L50.0745 17.2727ZM51.1729 13.2285H52.4761C53.4471 13.2285 53.9518 12.8738 53.9518 12.208C53.9518 11.5611 53.4761 11.1823 52.6624 11.1823H51.1729V13.2285ZM52.7608 16.3492C53.7504 16.3492 54.2747 15.9503 54.2747 15.207C54.2747 14.4729 53.7307 14.0889 52.6972 14.0889H51.1729V16.3492H52.7608Z" fill="#F0EEEE"/>
<path id="Vector_13" d="M56.5248 15.7773C56.5248 14.8246 57.2401 14.2752 58.5098 14.1972L59.9554 14.1145V13.6576C59.9554 13.0986 59.5827 12.783 58.8628 12.783C58.2748 12.783 57.8674 12.997 57.7505 13.3712H56.7309C56.8385 12.462 57.7008 11.8789 58.9114 11.8789C60.2493 11.8789 61.004 12.5396 61.004 13.6576V17.2743H59.9901V16.5304H59.9068C59.7376 16.7972 59.5001 17.0148 59.2185 17.1608C58.9369 17.3068 58.6212 17.376 58.3037 17.3615C58.0797 17.3846 57.8533 17.3609 57.6391 17.2919C57.4248 17.2229 57.2275 17.1102 57.0599 16.9609C56.8924 16.8117 56.7581 16.6292 56.666 16.4254C56.5738 16.2215 56.5257 16.0008 56.5248 15.7773ZM59.9554 15.325V14.8825L58.6522 14.9652C57.9172 15.014 57.5838 15.2619 57.5838 15.7286C57.5838 16.2049 58.0006 16.4822 58.5734 16.4822C58.7413 16.4991 58.9109 16.4822 59.0721 16.4328C59.2333 16.3833 59.3829 16.3021 59.5118 16.1942C59.6407 16.0863 59.7464 15.9536 59.8226 15.8043C59.8988 15.655 59.944 15.4921 59.9554 15.325Z" fill="#F0EEEE"/>
<path id="Vector_14" d="M62.5161 10.4152C62.508 10.2799 62.541 10.1453 62.6109 10.0288C62.6808 9.91237 62.7844 9.81947 62.9082 9.76197C63.0319 9.70455 63.1703 9.68535 63.3051 9.70674C63.4401 9.72823 63.5654 9.78939 63.6649 9.88229C63.7645 9.97518 63.8335 10.0956 63.8632 10.2279C63.8929 10.3602 63.882 10.4982 63.8316 10.6243C63.7813 10.7503 63.694 10.8584 63.581 10.9346C63.468 11.0109 63.3345 11.0517 63.1978 11.0517C63.1105 11.0562 63.0232 11.0431 62.9411 11.0132C62.859 10.9833 62.7838 10.9372 62.7201 10.8777C62.6564 10.8182 62.6055 10.7467 62.5705 10.6671C62.5354 10.5877 62.5169 10.502 62.5161 10.4152ZM62.6724 11.9805H63.7221V17.2737H62.6724V11.9805Z" fill="#F0EEEE"/>
<path id="Vector_15" d="M67.3362 15.3974L66.1696 17.2737H65.0134L66.783 14.6391L64.9983 11.9805H66.2287L67.3756 13.8471H67.4589L68.5956 11.9805H69.7669L68.0076 14.5955L69.7865 17.2737H68.577L67.415 15.3974H67.3362Z" fill="#F0EEEE"/>
<path id="Vector_16" d="M70.7163 15.7773C70.7163 14.8246 71.4316 14.2752 72.7013 14.1972L74.1469 14.1145V13.6576C74.1469 13.0986 73.7743 12.783 73.0543 12.783C72.4664 12.783 72.059 12.997 71.942 13.3712H70.9223C71.03 12.462 71.8923 11.8789 73.1029 11.8789C74.4409 11.8789 75.1955 12.5396 75.1955 13.6576V17.2743H74.1817V16.5304H74.0983C73.9291 16.7972 73.6916 17.0148 73.41 17.1608C73.1284 17.3068 72.8127 17.376 72.4953 17.3615C72.2713 17.3846 72.0448 17.3609 71.8306 17.2919C71.6164 17.2229 71.4191 17.1102 71.2515 16.9609C71.0839 16.8117 70.9497 16.6292 70.8575 16.4254C70.7652 16.2215 70.7173 16.0008 70.7163 15.7773ZM74.1469 15.325V14.8825L72.8437 14.9652C72.1087 15.014 71.7754 15.2619 71.7754 15.7286C71.7754 16.2049 72.192 16.4822 72.765 16.4822C72.9328 16.4991 73.1024 16.4822 73.2636 16.4328C73.4248 16.3833 73.5743 16.3021 73.7033 16.1942C73.8322 16.0863 73.9379 15.9536 74.0142 15.8043C74.0903 15.655 74.1355 15.4921 74.1469 15.325Z" fill="#F0EEEE"/>
<path id="Vector_17" d="M76.8448 11.9807H77.8587V12.7923H77.9374C78.0509 12.5106 78.2515 12.2717 78.5104 12.1101C78.7694 11.9486 79.0732 11.8725 79.3784 11.8929C79.5362 11.8908 79.6937 11.9054 79.8483 11.9365V12.9674C79.655 12.9264 79.458 12.9053 79.2603 12.9043C79.0866 12.8888 78.9115 12.9095 78.7464 12.9652C78.5813 13.0208 78.4297 13.1101 78.3013 13.2273C78.1731 13.3444 78.0709 13.487 78.0014 13.6457C77.932 13.8043 77.8968 13.9756 77.898 14.1486V17.2739H76.8448V11.9807Z" fill="#F0EEEE"/>
<path id="Vector_18" d="M83.9067 11.9823H84.9213V12.8232H85C85.1335 12.5212 85.3587 12.268 85.6442 12.099C85.9297 11.9299 86.2612 11.8535 86.5926 11.8802C86.8523 11.8608 87.113 11.8997 87.3555 11.9939C87.598 12.0879 87.8159 12.235 87.9934 12.4241C88.1708 12.6132 88.3031 12.8394 88.3803 13.0861C88.4576 13.3327 88.4779 13.5934 88.4399 13.8489V17.2756H87.3866V14.1112C87.3866 13.2606 87.0138 12.8376 86.235 12.8376C86.0587 12.8294 85.8827 12.8592 85.719 12.9249C85.5554 12.9905 85.408 13.0904 85.287 13.2178C85.166 13.3453 85.0741 13.4971 85.0178 13.663C84.9615 13.8289 84.942 14.0049 84.9606 14.179V17.2756H83.9068L83.9067 11.9823Z" fill="#F0EEEE"/>
<path id="Vector_19" d="M89.7646 15.7773C89.7646 14.8246 90.4798 14.2752 91.7498 14.1972L93.1953 14.1145V13.6576C93.1953 13.0986 92.8222 12.783 92.1027 12.783C91.5148 12.783 91.1072 12.997 90.9903 13.3712H89.9706C90.0782 12.462 90.9405 11.8789 92.1511 11.8789C93.4887 11.8789 94.2439 12.5396 94.2439 13.6576V17.2743H93.23V16.5304H93.1468C92.9777 16.7972 92.7399 17.0148 92.4583 17.1608C92.1767 17.3068 91.8613 17.376 91.5431 17.3615C91.3195 17.3846 91.093 17.3609 90.8788 17.2919C90.6646 17.2229 90.4673 17.1102 90.2997 16.9609C90.132 16.8117 89.9978 16.6292 89.9057 16.4254C89.8135 16.2215 89.7655 16.0008 89.7646 15.7773ZM93.1953 15.325V14.8825L91.8915 14.9652C91.157 15.014 90.8236 15.2619 90.8236 15.7286C90.8236 16.2049 91.2402 16.4822 91.8129 16.4822C91.9811 16.4991 92.1502 16.4822 92.3121 16.4328C92.473 16.3833 92.6229 16.3021 92.7518 16.1942C92.8808 16.0863 92.9859 15.9537 93.0627 15.8043C93.1386 15.655 93.1834 15.4921 93.1953 15.325Z" fill="#F0EEEE"/>
</g>
<defs>
<clipPath id="clip0_1_993">
<rect width="160" height="49.3714" fill="white"/>
</clipPath>
</defs>
</svg>
